HIERARCHY
ROOT Hips
{
	OFFSET -0.001795 -0.223333 0.028219
	CHANNELS 6 Xposition Yposition Zposition Zrotation Yrotation Xrotation
	JOINT LeftUpLeg
	{
		OFFSET 0.069520 -0.091406 -0.006815
		CHANNELS 3 Zrotation Yrotation Xrotation
		JOINT LeftLeg
		{
			OFFSET 0.034277 -0.375199 -0.004496
			CHANNELS 3 Zrotation Yrotation Xrotation
			JOINT LeftFoot
			{
				OFFSET -0.013596 -0.397961 -0.043693
				CHANNELS 3 Zrotation Yrotation Xrotation
				JOINT LeftToe
				{
					OFFSET 0.026358 -0.055791 0.119288
					CHANNELS 3 Zrotation Yrotation Xrotation
					End Site
					{
						OFFSET 0.000000 0.000000 0.000000
					}
				}
			}
		}
	}
	JOINT RightUpLeg
	{
		OFFSET -0.067670 -0.090522 -0.004320
		CHANNELS 3 Zrotation Yrotation Xrotation
		JOINT RightLeg
		{
			OFFSET -0.038290 -0.382569 -0.008850
			CHANNELS 3 Zrotation Yrotation Xrotation
			JOINT RightFoot
			{
				OFFSET 0.015774 -0.398415 -0.042312
				CHANNELS 3 Zrotation Yrotation Xrotation
				JOINT RightToe
				{
					OFFSET -0.025372 -0.048144 0.123348
					CHANNELS 3 Zrotation Yrotation Xrotation
					End Site
					{
						OFFSET 0.000000 0.000000 0.000000
					}
				}
			}
		}
	}
	JOINT Spine
	{
		OFFSET -0.002533 0.108963 -0.026696
		CHANNELS 3 Zrotation Yrotation Xrotation
		JOINT Spine1
		{
			OFFSET 0.005487 0.135180 0.001092
			CHANNELS 3 Zrotation Yrotation Xrotation
			JOINT Spine2
			{
				OFFSET 0.001457 0.052922 0.025425
				CHANNELS 3 Zrotation Yrotation Xrotation
				JOINT Neck
				{
					OFFSET -0.002778 0.213870 -0.042857
					CHANNELS 3 Zrotation Yrotation Xrotation
					JOINT Head
					{
						OFFSET 0.005152 0.064970 0.051349
						CHANNELS 3 Zrotation Yrotation Xrotation
						End Site
						{
							OFFSET 0.000000 0.000000 0.000000
						}
					}
				}
				JOINT LeftShoulder
				{
					OFFSET 0.078845 0.121749 -0.034090
					CHANNELS 3 Zrotation Yrotation Xrotation
					JOINT LeftArm
					{
						OFFSET 0.090977 0.030469 -0.008868
						CHANNELS 3 Zrotation Yrotation Xrotation
						JOINT LeftForeArm
						{
							OFFSET 0.259612 -0.012772 -0.027456
							CHANNELS 3 Zrotation Yrotation Xrotation
							JOINT LeftHand
							{
								OFFSET 0.249234 0.008986 -0.001171
								CHANNELS 3 Zrotation Yrotation Xrotation
								End Site
								{
									OFFSET 0.000000 0.000000 0.000000
								}
							}
						}
					}
				}
				JOINT RightShoulder
				{
					OFFSET -0.081759 0.118833 -0.038615
					CHANNELS 3 Zrotation Yrotation Xrotation
					JOINT RightArm
					{
						OFFSET -0.096012 0.032551 -0.009143
						CHANNELS 3 Zrotation Yrotation Xrotation
						JOINT RightForeArm
						{
							OFFSET -0.253742 -0.013329 -0.021401
							CHANNELS 3 Zrotation Yrotation Xrotation
							JOINT RightHand
							{
								OFFSET -0.255298 0.007772 -0.005559
								CHANNELS 3 Zrotation Yrotation Xrotation
								End Site
								{
									OFFSET 0.000000 0.000000 0.000000
								}
							}
						}
					}
				}
			}
		}
	}
}
MOTION
Frames: 11
Frame Time: 0.050000
-0.218824 0.169693 1.783698 -0.951201 -4.230263 -121.703632 45.966041 26.613177 -90.300731 133.749106 -14.332513 -16.157883 25.473280 2.016634 -121.078436 0.000000 0.000000 0.000000 -61.270288 -13.360191 -60.723145 -47.694132 -16.709951 -122.564077 -10.245298 -19.612671 -106.985362 0.000000 0.000000 0.000000 -41.054631 -10.778559 44.804667 -121.229981 -75.732591 179.766148 -148.899809 31.326135 -130.970086 1.780503 -10.829358 -13.854340 0.000000 0.000000 0.000000 17.668100 -12.395145 1.281165 -16.810941 -41.109096 2.320285 111.905246 -3.835208 -3.839976 0.000000 0.000000 0.000000 -3.362960 8.184949 25.739327 -20.359190 46.753348 -17.860169 -100.323331 -2.618826 -4.080974 0.000000 0.000000 0.000000
-0.221175 0.157687 1.818128 -3.621745 -6.433799 -109.759405 39.436972 25.203189 -92.724907 146.653626 -11.845283 -18.319234 46.334103 -21.687776 -130.152581 0.000000 0.000000 0.000000 -50.706631 -17.629792 -54.657245 178.651767 61.240017 -24.670787 -20.894920 2.556835 -101.506889 0.000000 0.000000 0.000000 -24.983462 -7.260150 37.294158 -151.712303 -62.257571 -151.872279 -146.949629 31.511895 -131.646116 5.065287 -13.048962 -12.962385 0.000000 0.000000 0.000000 16.813662 -13.885405 -1.093294 -23.828554 -36.529816 5.058852 116.884601 -8.896687 -13.219592 0.000000 0.000000 0.000000 -2.077261 6.851806 26.742283 -17.312293 49.090610 -18.415091 -97.972896 5.347695 -12.086831 0.000000 0.000000 0.000000
-0.221952 0.159314 1.846380 -4.581098 -6.486648 -100.376223 45.723996 29.916980 -83.614226 152.743723 -42.533300 -13.384435 98.284303 -68.720249 -150.619937 0.000000 0.000000 0.000000 -48.448120 -19.059608 -47.032610 13.261305 15.027136 161.174729 -5.578704 -8.554991 -80.180989 0.000000 0.000000 0.000000 -13.963229 -4.699001 25.845956 149.670110 -66.563194 -107.212877 -136.372520 54.606736 -109.575676 9.427964 -8.160823 -14.342028 0.000000 0.000000 0.000000 18.986158 -9.707818 0.602873 -24.931846 -36.401109 4.051594 118.484359 -11.612673 -22.977025 0.000000 0.000000 0.000000 -1.313205 6.347676 22.317224 -2.815590 49.016653 -10.833513 -104.960176 13.869326 -22.304733 0.000000 0.000000 0.000000
-0.221308 0.164784 1.870550 -3.606427 -6.609180 -93.924174 54.930796 34.600298 -71.967721 147.150889 -66.093989 -6.155443 170.623932 -76.605417 143.074488 0.000000 0.000000 0.000000 -45.373649 -17.429534 -42.281951 15.624985 0.633190 151.503306 -3.531631 -11.797709 -69.536977 0.000000 0.000000 0.000000 -5.178251 -1.803684 18.605470 150.454169 -66.932732 -109.524353 -122.049627 49.025833 -97.922615 13.868223 -13.500629 -10.429311 0.000000 0.000000 0.000000 22.794587 -4.942132 3.777529 -25.685896 -34.139945 4.238746 123.895674 -11.005588 -28.358147 0.000000 0.000000 0.000000 1.960328 4.255683 27.830464 -1.702802 48.185614 -11.570928 -117.556884 15.755922 -34.728169 0.000000 0.000000 0.000000
-0.220451 0.163730 1.890165 -5.419934 -5.432866 -89.767923 55.847672 34.158879 -73.599896 144.422013 -66.209837 -3.196633 -162.370348 -54.066181 120.621544 0.000000 0.000000 0.000000 -43.080174 -17.450833 -40.514684 14.819514 1.248659 148.147431 -4.681522 -7.766629 -63.130896 0.000000 0.000000 0.000000 -1.367425 -0.395890 17.242460 -169.372603 -45.153669 -137.905456 -135.197771 23.505169 -113.779634 17.237839 -8.283044 -20.789165 0.000000 0.000000 0.000000 25.597605 -0.659224 1.902966 -24.291112 -32.205030 2.758495 130.314696 -9.115377 -34.216866 0.000000 0.000000 0.000000 0.000159 -4.622225 30.220748 -4.254799 51.640451 -15.670046 -133.390217 12.031500 -45.691182 0.000000 0.000000 0.000000
-0.219391 0.161775 1.904424 -6.537732 -3.513929 -84.928645 54.654827 34.636567 -83.579648 144.379853 -60.985198 -2.317901 -144.090816 -36.217303 113.926002 0.000000 0.000000 0.000000 -41.277930 -17.737590 -43.709334 11.877802 6.619126 149.599198 -5.241696 -6.736747 -59.497211 0.000000 0.000000 0.000000 -3.112734 -1.231270 15.970805 -92.488157 -38.412483 -166.127235 -88.688700 -11.226392 -134.543495 16.345793 -10.782287 -20.839732 0.000000 0.000000 0.000000 33.909728 5.530141 15.892315 -20.867035 -38.955103 -0.325783 131.756178 2.142738 -27.848423 0.000000 0.000000 0.000000 -6.331101 -5.199369 18.402871 21.096753 44.096031 -0.071345 -140.017773 12.731952 -46.005218 0.000000 0.000000 0.000000
-0.218991 0.156117 1.912882 -6.493470 -4.829770 -81.349806 42.587131 29.230340 -91.068999 153.814318 -33.011314 -12.136188 -103.364717 3.730113 117.281380 0.000000 0.000000 0.000000 -35.115718 -14.238497 -44.982316 11.973155 -1.429093 147.253912 -4.780647 -15.183895 -63.482026 0.000000 0.000000 0.000000 6.092582 2.029238 20.264681 -30.658130 -15.529118 -171.911257 -29.236093 -10.921971 -173.297590 11.559629 -4.682736 -22.397880 0.000000 0.000000 0.000000 26.907585 4.751359 12.957550 -26.818889 -37.351462 3.717169 141.568011 0.469654 -31.492171 0.000000 0.000000 0.000000 -15.788513 -7.912721 4.248808 31.573269 32.475124 7.593571 -142.886858 15.948503 -57.473750 0.000000 0.000000 0.000000
-0.218787 0.156010 1.916281 -6.342432 -2.150506 -75.992519 37.980284 23.901004 -91.786917 157.595852 -32.469598 -11.827902 -94.607153 7.272890 120.408352 0.000000 0.000000 0.000000 -34.243671 -14.435570 -47.680686 14.303866 -8.935226 138.149991 -5.434492 -18.168638 -65.800455 0.000000 0.000000 0.000000 2.097275 0.402962 23.404170 -23.229167 -10.762612 -173.179510 -27.410693 -7.084317 -179.524241 6.167590 -9.768000 -12.254852 0.000000 0.000000 0.000000 17.093115 5.394487 12.386460 -34.614975 -40.483097 7.750999 148.477094 -2.251573 -36.788926 0.000000 0.000000 0.000000 -11.804631 -2.838683 5.409836 28.137883 31.655120 7.184283 -143.209479 20.202212 -66.606744 0.000000 0.000000 0.000000
-0.219085 0.152980 1.917889 -7.291783 -2.129952 -71.787497 33.943771 19.622105 -92.643361 158.969932 -19.477561 -13.083846 -74.435594 18.541921 127.074208 0.000000 0.000000 0.000000 -33.029987 -14.351159 -53.380864 14.033764 -9.936354 133.866531 -6.109642 -17.352648 -61.452206 0.000000 0.000000 0.000000 6.679169 0.990025 26.091750 -20.662141 -12.843562 -178.404917 -23.272515 -5.470429 -175.197941 8.404636 -6.966857 -4.855820 0.000000 0.000000 0.000000 12.026651 1.031289 10.716172 -38.212157 -40.310674 12.878662 155.033065 -7.702192 -50.429092 0.000000 0.000000 0.000000 -7.752021 -3.613305 2.773814 26.247773 31.886767 10.684531 -140.489752 22.769856 -62.787414 0.000000 0.000000 0.000000
-0.219601 0.157195 1.919945 -5.954710 -1.680431 -68.846935 31.594730 17.182345 -87.228421 162.384313 -23.524544 -12.589435 -109.528911 11.230273 126.630970 0.000000 0.000000 0.000000 -32.845466 -14.219814 -57.640277 17.789971 -17.369791 127.568079 -5.955698 -19.267031 -53.652656 0.000000 0.000000 0.000000 8.130872 -0.218049 37.904548 -19.084749 -8.707496 -176.149483 -22.110324 -2.089173 176.861974 9.395817 -7.890760 0.270812 0.000000 0.000000 0.000000 1.446348 -1.314623 8.366085 -36.302690 -40.795540 17.910034 160.480498 -15.566697 -72.016832 0.000000 0.000000 0.000000 -6.147372 2.865330 5.179853 19.130548 28.347840 10.633647 -136.242848 19.933502 -44.958224 0.000000 0.000000 0.000000
-0.220204 0.166228 1.922136 -5.788366 -0.954673 -61.849285 31.313611 16.389972 -85.695492 164.547510 -45.643422 -10.205212 -168.084942 -29.329679 131.993199 0.000000 0.000000 0.000000 -34.530093 -15.920748 -62.998692 18.511163 -19.980607 124.660965 -6.385128 -18.239704 -48.643262 0.000000 0.000000 0.000000 10.650799 -1.899722 44.108947 -17.084112 -8.419634 -179.043440 -19.973604 0.506274 177.797474 5.071317 -10.778415 4.793644 0.000000 0.000000 0.000000 -7.507006 -4.729363 7.123559 -33.107789 -37.045997 24.053715 162.976857 -21.775455 -64.750179 0.000000 0.000000 0.000000 -3.868112 8.211106 6.056062 16.679257 22.299737 14.571580 -133.945337 14.832237 -13.189853 0.000000 0.000000 0.000000
